# xmcd
#
# Track frame offsets: 
#        182
#        13732
#        28607
#        39007
#        50282
#        70345
#        81295
#        95507
#        107770
#        124607
#        134695
#        144445
#
# Disc length: 2170 seconds
#
# Revision: 0
# Processed by: cddbd v1.4PL0 Copyright (c) Steve Scherf et al.
# Submitted via: ExactAudioCopy v0.90a11
#
DISCID=9d08780c
DTITLE=The Fargone Beauties - Dark Side Of The Moo
DYEAR=1900
DGENRE=
TTITLE0=Mama Weer All Crazee Now
TTITLE1=Fat Bottom Girls
TTITLE2=I Hear You Knockin' (Walk Don't Run - The Ventures)
TTITLE3=Johnny B Goode
TTITLE4=Get It On
TTITLE5=Top Hog
TTITLE6=That's The Way (The Hustle)
TTITLE7=Judgement Day
TTITLE8=Ballroom Blitz (Magnificent 7)
TTITLE9=I'm Walkin' (Fats Domino)
TTITLE10=She's So Fine
TTITLE11=I'm Not In Love
EXTD=
EXTT0=
EXTT1=
EXTT2=
EXTT3=
EXTT4=
EXTT5=
EXTT6=
EXTT7=
EXTT8=
EXTT9=
EXTT10=
EXTT11=
PLAYORDER=
